:version 1.10
:name ASF
:units
  mass 1
  length 1
  angle deg
:documentation
  ASF file generated by Kaydara
:root
  axis xyz
  order  tx ty tz rx ry rz
  position 0 0 0
  orientation 0 0 0
:bonedata
  begin
    id 1
    name RightUpLegDummy
    direction -1 2.30186e-007 8.31532e-007
    length 4.04083
    axis 0 0 0 xyz
  end
  begin
    id 2
    name RightUpLeg
    direction -0.000919234 -0.999985 0.00544864
    length 17.4221
    axis -3.80308 -0.00076134 -0.0523649 xyz
    dof rx ry rz
  end
  begin
    id 3
    name RightLeg
    direction -0.000919271 -0.999984 -0.00555045
    length 17.1239
    axis 4.00314 0.0181274 -0.183583 xyz
    dof rx ry rz
  end
  begin
    id 4
    name RightFoot
    direction -2.57843e-005 -4.04509e-007 1
    length 6.72091
    axis 8.18909e-005 -0.122003 -0.403008 xyz
    dof rx ry rz
  end
  begin
    id 5
    name RightToes
    direction 0.00116825 -0.014069 0.9999
    length 3.85082
    axis 0.000514414 0.540638 -0.356797 xyz
    dof rx ry rz
  end
  begin
    id 6
    name SpineDummy
    direction 0.0168869 0.966876 -0.254689
    length 6.99894
    axis 0 0 0 xyz
  end
  begin
    id 7
    name Spine
    direction -0.0132008 0.999903 0.00446247
    length 11.1999
    axis -0.00148109 0.00725429 0.756411 xyz
    dof rx ry rz
  end
  begin
    id 8
    name Spine1
    direction 0 0 0
    length 0
    axis -0.000934958 0.0245693 1.46543 xyz
    dof rx ry rz
  end
  begin
    id 9
    name HEadDummy
    direction -0.0255732 0.999672 0.00128215
    length 3.43865
    axis -0.000934958 0.0245693 1.46543 xyz
  end
  begin
    id 10
    name HEad
    direction -0.0472656 0.980052 0.19304
    length 5.12695
    axis -0.000934954 0.0245693 1.46543 xyz
    dof rx ry rz
  end
  begin
    id 11
    name LeftShoulder1Dummy
    direction 0.953098 0.301717 -0.023914
    length 3.68488
    axis -0.000934958 0.0245693 1.46543 xyz
  end
  begin
    id 12
    name LeftShoulder1
    direction 0.962466 0.271167 0.0112566
    length 3.13809
    axis -0.000934958 0.0245693 1.46543 xyz
    dof rx ry rz
  end
  begin
    id 13
    name LeftArm
    direction 0.999943 0.00455037 -0.00961766
    length 11.3419
    axis -23.1648 0.685459 1.22814 xyz
    dof rx ry rz
  end
  begin
    id 14
    name LeftForeArm
    direction 0.999332 0.0131969 0.0340885
    length 8.70632
    axis -9.90633 0.618216 0.0826942 xyz
    dof rx ry rz
  end
  begin
    id 15
    name LeftHand
    direction 0.994373 -0.0366703 0.0993905
    length 5.32135
    axis 0.00675269 0.680415 0.445699 xyz
    dof rx ry rz
  end
  begin
    id 16
    name RightShoulderDummy
    direction -0.967298 0.252589 -0.0230903
    length 3.68488
    axis -0.000934958 0.0245693 1.46543 xyz
  end
  begin
    id 17
    name RightShoulder
    direction -0.975062 0.221602 0.0120823
    length 3.13809
    axis 0.216257 0.0246515 1.45863 xyz
    dof rx ry rz
  end
  begin
    id 18
    name RightArm
    direction -0.99886 -0.00851186 -0.0469687
    length 10.3947
    axis -23.196 0.23503 -0.532632 xyz
    dof rx ry rz
  end
  begin
    id 19
    name RightForeArm
    direction -0.99909 0.00114866 0.0426317
    length 8.68355
    axis -9.91764 -0.134943 0.610517 xyz
    dof rx ry rz
  end
  begin
    id 20
    name RightHand
    direction -0.992888 -0.0489538 0.10852
    length 5.28593
    axis -0.00275396 -0.197403 0.246414 xyz
    dof rx ry rz
  end
  begin
    id 21
    name LeftUpLegDummy
    direction 1 -2.30186e-007 -8.31532e-007
    length 4.04083
    axis 0 0 0 xyz
  end
  begin
    id 22
    name LeftUpLeg
    direction -0.000920097 -1 2.79241e-006
    length 17.4221
    axis -3.48782 0.00143434 -0.0532288 xyz
    dof rx ry rz
  end
  begin
    id 23
    name LeftLeg
    direction -0.000920097 -1 2.7912e-006
    length 17.1239
    axis 3.68162 -0.00806512 -0.0529896 xyz
    dof rx ry rz
  end
  begin
    id 24
    name LeftFoot
    direction -2.57845e-005 -3.987e-007 1
    length 6.72091
    axis 3.02372e-005 -0.00147829 -0.214229 xyz
    dof rx ry rz
  end
  begin
    id 25
    name LeftToes
    direction 0.00813577 -0.00488255 0.999955
    length 3.85048
    axis 3.89895e-005 -0.0014783 -0.214229 xyz
    dof rx ry rz
  end
:hierarchy
  begin
    root RightUpLegDummy SpineDummy LeftUpLegDummy
    RightUpLegDummy RightUpLeg
    RightUpLeg RightLeg
    RightLeg RightFoot
    RightFoot RightToes
    SpineDummy Spine
    Spine Spine1
    Spine1 HEadDummy LeftShoulder1Dummy RightShoulderDummy
    HEadDummy HEad
    LeftShoulder1Dummy LeftShoulder1
    LeftShoulder1 LeftArm
    LeftArm LeftForeArm
    LeftForeArm LeftHand
    RightShoulderDummy RightShoulder
    RightShoulder RightArm
    RightArm RightForeArm
    RightForeArm RightHand
    LeftUpLegDummy LeftUpLeg
    LeftUpLeg LeftLeg
    LeftLeg LeftFoot
    LeftFoot LeftToes
  end

:SAMPLES-PER-SECOND 30
:FULLY-SPECIFIED
:DEGREES
77
root  -54.0911 34.7578 31.2404 -169.944 52.4449 -179.483
RightUpLeg  -8.67192 -16.574 0.178026
RightLeg  7.27335 -2.07152 -0.128659
RightFoot  2.29055 0.0143954 0.0607821
RightToes  -21.2487 -0.0906076 -0.193048
Spine  -2.23533 -0.477604 0.260613
Spine1  -4.54983 -0.893643 1.10547
HEad  -66.1798 -12.4583 3.94133
LeftShoulder1  -1.94126e-019 -3.10601e-018 -2.51263e-017
LeftArm  -7.99738 24.8581 -83.075
LeftForeArm  33.0318 -18.1685 -3.0269
LeftHand  -0.334358 -0.880004 6.26702
RightShoulder  -4.96962e-017 0 -2.36833e-017
RightArm  -25.7908 -25.4923 78.6248
RightForeArm  55.8538 14.299 1.22059
RightHand  -0.311853 -1.18851 -8.54226
LeftUpLeg  -9.12399 2.3028 2.51568
LeftLeg  6.47346 13.7257 0.661991
LeftFoot  5.75328 -0.0679663 1.51408
LeftToes  -21.3137 1.48321e-006 1.01846e-007
78
root  -54.1146 34.7601 31.2203 -170.119 51.6109 -179.666
RightUpLeg  -8.60916 -16.9441 0.0597199
RightLeg  7.42167 -2.53275 -0.164095
RightFoot  2.16174 0.0151023 0.0506803
RightToes  -21.3382 -0.0906076 -0.193048
Spine  -2.25311 -0.559615 0.271793
Spine1  -4.58301 -1.06338 1.13472
HEad  -66.0778 -12.5643 3.71148
LeftShoulder1  -1.94126e-019 -3.10601e-018 -2.51263e-017
LeftArm  -8.02214 24.7469 -83.2338
LeftForeArm  33.1465 -18.3876 -3.05929
LeftHand  -0.334923 -0.95441 6.20913
RightShoulder  -4.96962e-017 0 -2.36833e-017
RightArm  -25.6335 -25.6816 78.4306
RightForeArm  56.0264 14.1245 1.24169
RightHand  -0.310017 -1.26107 -8.61502
LeftUpLeg  -9.22534 1.68654 2.43645
LeftLeg  6.43614 13.5043 0.642768
LeftFoot  5.88473 -0.0690273 1.52198
LeftToes  -21.4517 1.48321e-006 1.01846e-007
79
root  -54.1415 34.7584 31.1993 -170.257 50.6613 -179.827
RightUpLeg  -8.70443 -17.9663 0.0165072
RightLeg  7.77575 -2.7355 -0.194279
RightFoot  1.95595 0.0149432 0.0529531
RightToes  -21.5376 -0.0906076 -0.193048
Spine  -2.20071 -0.575951 0.231012
Spine1  -4.47482 -1.10784 1.05379
HEad  -66.2869 -12.8852 3.74901
LeftShoulder1  -1.94126e-019 -3.10601e-018 -2.51263e-017
LeftArm  -7.44419 24.4219 -83.1829
LeftForeArm  32.8913 -18.9596 -3.15188
LeftHand  -0.333365 -0.938257 6.20467
RightShoulder  -4.96962e-017 0 -2.36833e-017
RightArm  -26.0298 -25.7635 78.4296
RightForeArm  56.3697 13.9247 1.2644
RightHand  -0.320718 -0.995152 -8.23212
LeftUpLeg  -9.39745 1.05274 2.3676
LeftLeg  6.46632 13.1986 0.635366
LeftFoot  5.95798 -0.0684528 1.50448
LeftToes  -21.3813 1.48321e-006 1.01846e-007
80
root  -54.1714 34.7564 31.1779 -170.356 49.66 -179.964
RightUpLeg  -8.70293 -18.1021 -0.124949
RightLeg  8.10848 -3.31296 -0.254788
RightFoot  1.72359 0.014917 0.0533285
RightToes  -21.4195 -0.0906076 -0.193048
Spine  -2.17526 -0.624207 0.191359
Spine1  -4.42162 -1.21046 0.975268
HEad  -66.3186 -13.2784 3.60512
LeftShoulder1  -1.94126e-019 -3.10601e-018 -2.51263e-017
LeftArm  -7.00934 24.23 -83.1221
LeftForeArm  32.5148 -19.5771 -3.24563
LeftHand  -0.331167 -0.938984 6.20261
RightShoulder  -4.96962e-017 0 -2.36833e-017
RightArm  -26.177 -25.8627 78.4186
RightForeArm  56.5843 13.7897 1.28032
RightHand  -0.319327 -1.10513 -8.34001
LeftUpLeg  -9.6006 0.347362 2.31626
LeftLeg  6.50144 12.905 0.629307
LeftFoot  6.01513 -0.0677632 1.48414
LeftToes  -21.3412 1.48321e-006 1.01846e-007
81
root  -54.2046 34.7576 31.1493 -170.464 48.7209 179.892
RightUpLeg  -8.72497 -18.5573 -0.239174
RightLeg  8.39746 -3.76685 -0.308879
RightFoot  1.52843 0.0149482 0.0528829
RightToes  -21.3605 -0.0906076 -0.193048
Spine  -2.13702 -0.624443 0.146037
Spine1  -4.34227 -1.217 0.886472
HEad  -66.561 -13.6164 3.61748
LeftShoulder1  -1.94126e-019 -3.10601e-018 -2.51263e-017
LeftArm  -6.7342 24.0292 -83.1201
LeftForeArm  32.2813 -20.0735 -3.31305
LeftHand  -0.327373 -0.950599 6.12251
RightShoulder  -4.96962e-017 0 -2.36833e-017
RightArm  -26.1555 -25.9115 78.3618
RightForeArm  56.7382 13.6704 1.29484
RightHand  -0.320616 -1.08573 -8.31798
LeftUpLeg  -9.74839 -0.299564 2.2323
LeftLeg  6.46581 12.6009 0.606915
LeftFoot  6.14439 -0.0681977 1.47917
LeftToes  -21.4926 1.48321e-006 1.01846e-007
82
root  -54.2295 34.7758 31.1126 -170.591 47.8811 179.732
RightUpLeg  -8.57715 -19.3315 -0.329075
RightLeg  8.27184 -4.06594 -0.324459
RightFoot  1.58007 0.0150071 0.0520406
RightToes  -21.6088 -0.0906076 -0.193048
Spine  -2.11683 -0.485213 0.257536
Spine1  -4.29827 -0.945381 1.13517
HEad  -66.7244 -14.4524 2.9764
LeftShoulder1  -1.94126e-019 -3.10601e-018 -2.51263e-017
LeftArm  -6.28721 23.675 -83.6499
LeftForeArm  31.7183 -19.3768 -3.12987
LeftHand  -0.315641 -0.940457 5.91542
RightShoulder  -4.96962e-017 0 -2.36833e-017
RightArm  -26.7848 -25.8506 77.8689
RightForeArm  57.4661 13.305 1.33666
RightHand  -0.314232 -1.14562 -8.50933
LeftUpLeg  -9.65248 -0.887781 2.13166
LeftLeg  6.01976 12.3977 0.501381
LeftFoot  6.36106 -0.0710885 1.5092
LeftToes  -21.2672 1.48321e-006 1.01846e-007
83
root  -54.2394 34.7771 31.0767 -170.629 47.1105 179.642
RightUpLeg  -8.48553 -19.7905 -0.409637
RightLeg  8.31401 -4.35114 -0.350449
RightFoot  1.49797 0.0150641 0.0512261
RightToes  -21.6568 -0.090886 -0.193048
Spine  -2.13398 -0.402212 0.169421
Spine1  -4.33099 -0.781993 0.960209
HEad  -66.651 -15.1846 2.86712
LeftShoulder1  -1.94126e-019 -3.10601e-018 -2.51263e-017
LeftArm  -6.07846 23.606 -83.5486
LeftForeArm  31.5916 -19.4836 -3.13197
LeftHand  -0.312935 -0.961954 5.84757
RightShoulder  -4.96962e-017 0 -2.36833e-017
RightArm  -26.7826 -25.7072 77.8874
RightForeArm  57.8042 12.8385 1.39276
RightHand  -0.31057 -1.14202 -8.40174
LeftUpLeg  -9.73844 -1.37079 2.08216
LeftLeg  5.94088 12.123 0.473842
LeftFoot  6.43713 -0.0713701 1.49439
LeftToes  -21.2229 1.48321e-006 1.01846e-007
84
root  -54.2358 34.7675 31.0414 -170.591 46.596 179.538
RightUpLeg  -8.49138 -19.7558 -0.513158
RightLeg  8.4304 -4.67683 -0.386233
RightFoot  1.34714 0.0150895 0.0508637
RightToes  -21.5669 -0.0910891 -0.193048
Spine  -2.20604 -0.212495 -0.0927579
Spine1  -4.47722 -0.39848 0.40935
HEad  -66.2746 -16.0879 3.26511
LeftShoulder1  -1.94126e-019 -3.10601e-018 -2.51263e-017
LeftArm  -6.14388 23.6052 -83.0031
LeftForeArm  31.739 -19.9279 -3.24077
LeftHand  -0.314997 -0.974493 5.82175
RightShoulder  -4.96962e-017 0 -2.36833e-017
RightArm  -26.5896 -25.0009 78.0092
RightForeArm  58.2379 11.6699 1.50205
RightHand  -0.286887 -0.770994 -7.16652
LeftUpLeg  -9.96345 -1.63279 2.01617
LeftLeg  6.08535 11.8723 0.493919
LeftFoot  6.39225 -0.070298 1.45321
LeftToes  -21.2018 1.48321e-006 1.01846e-007
85
root  -54.2172 34.7647 31.0239 -170.58 46.5463 179.498
RightUpLeg  -8.52646 -20.1106 -0.476938
RightLeg  8.39239 -4.68777 -0.384007
RightFoot  1.33226 0.0150595 0.051292
RightToes  -21.5762 -0.0912804 -0.193048
Spine  -2.25442 0.130305 -0.452312
Spine1  -4.59285 0.316006 -0.366061
HEad  -65.5283 -17.0531 3.84376
LeftShoulder1  -1.94126e-019 -3.10601e-018 -2.51263e-017
LeftArm  -6.57728 23.5386 -82.2054
LeftForeArm  31.9305 -20.2307 -3.34507
LeftHand  -0.317382 -0.987695 5.93698
RightShoulder  -4.96962e-017 0 -2.36833e-017
RightArm  -27.9986 -22.8048 77.7424
RightForeArm  60.7674 9.39836 1.50645
RightHand  -0.250801 0.686653 -4.88368
LeftUpLeg  -9.98989 -1.73903 2.00166
LeftLeg  6.13248 11.8786 0.503887
LeftFoot  6.40728 -0.0723901 1.45481
LeftToes  -21.2578 1.48321e-006 1.01846e-007
86
root  -54.179 34.8098 30.9775 -170.529 46.9875 179.571
RightUpLeg  -7.84877 -19.5437 -0.555135
RightLeg  7.2032 -4.51708 -0.275879
RightFoot  1.94056 0.017773 0.0125164
RightToes  -21.7514 -0.0914603 -0.193048
Spine  -2.34467 0.589483 -0.607307
Spine1  -4.79551 1.28418 -0.697704
HEad  -64.6144 -17.8119 3.2956
LeftShoulder1  -1.94126e-019 -3.10601e-018 -2.51263e-017
LeftArm  -7.33269 23.558 -82.1077
LeftForeArm  31.9302 -18.9797 -3.1141
LeftHand  -0.32105 -0.86132 5.97395
RightShoulder  -4.96962e-017 0 -2.36833e-017
RightArm  -28.4246 -19.229 75.8233
RightForeArm  65.0864 7.28754 1.23088
RightHand  -0.211278 2.99423 -3.15291
LeftUpLeg  -9.31888 -1.52925 1.99809
LeftLeg  5.09494 12.1538 0.29687
LeftFoot  6.76262 -0.0833772 1.57265
LeftToes  -21.159 1.48321e-006 1.01846e-007
87
root  -54.1553 34.8986 30.9282 -170.696 47.7132 179.675
RightUpLeg  -6.61494 -19.1371 -0.667543
RightLeg  5.17116 -4.19534 -0.107367
RightFoot  2.99114 0.0218668 -0.0459837
RightToes  -21.684 -0.0916292 -0.193048
Spine  -2.42476 0.900589 -0.854311
Spine1  -4.94764 1.91216 -1.12837
HEad  -63.8093 -17.87 2.89356
LeftShoulder1  -1.94126e-019 -3.10601e-018 -2.51263e-017
LeftArm  -8.17768 23.7297 -81.8271
LeftForeArm  31.9979 -17.3892 -2.8335
LeftHand  -0.323854 -0.828965 6.0266
RightShoulder  -4.96962e-017 0 -2.36833e-017
RightArm  -26.8112 -14.6506 72.9122
RightForeArm  67.5227 7.46216 1.25735
RightHand  -0.174863 4.37729 -2.35978
LeftUpLeg  -7.85577 -1.34672 1.96392
LeftLeg  2.97038 12.6856 -0.156648
LeftFoot  7.63332 -0.112878 1.85346
LeftToes  -21.0542 1.48321e-006 1.01846e-007
